# xmcd
#
# Track frame offsets:
#	150
#	20598
#	40253
#	58583
#	76798
#	102436
#	120062
#	152894
#	170678
#	188710
#	209734
#	226677
#
# Disc length: 3290 seconds
#
# Revision: 0
# Processed by: cddbd v1.5.1PL0 Copyright (c) Steve Scherf et al.
# Submitted via: dBpowerAMP V4.0
#
DISCID=930cd80c
DTITLE=Asleep At The Wheel - BackTo The Future Now
DYEAR=1997
DGENRE=Country
TTITLE0=Ain't Nobody Here But Us Chickens
TTITLE1=Miles and Miles of Texas
TTITLE2=Roly Poly
TTITLE3=Ida Red
TTITLE4=My Baby Thinks She's A Train
TTITLE5=The Letter That Johnny Walker Read
TTITLE6=God Bless The Child
TTITLE7=Fat Boy Rag
TTITLE8=Cherokee Boogie
TTITLE9=Hot Rod Lincoln
TTITLE10=Boogie Back To Texas
TTITLE11=House Of Blue Lights
EXTD=
EXTT0=
EXTT1=
EXTT2=
EXTT3=
EXTT4=
EXTT5=
EXTT6=
EXTT7=
EXTT8=
EXTT9=
EXTT10=
EXTT11=
PLAYORDER=
